<?xml version="1.0" encoding="utf-8"?>
<!-- Generator: Adobe Illustrator 25.0.0, SVG Export Plug-In . SVG Version: 6.00 Build 0)  -->
<svg version="1.1" id="Layer_1" xmlns="http://www.w3.org/2000/svg" xmlns:xlink="http://www.w3.org/1999/xlink" x="0px" y="0px"
	 viewBox="0 0 84 30" style="enable-background:new 0 0 84 30;" xml:space="preserve">
<style type="text/css">
	.st0{fill:#FFFFFF;}
	.st1{fill:#333333;}
</style>
<path class="st1" d="M24.55,4.74c-1.3,0.21-2.53,0.54-3.69,1.1c-2.19,1.05-3.84,2.61-4.72,4.92c-0.06,0.17-0.12,0.34-0.17,0.51
	c-0.05,0.17-0.09,0.34-0.15,0.58c-0.5-0.21-1-0.38-1.45-0.62c-1.41-0.75-2.35-1.86-2.6-3.49c-0.28-1.83,0.78-3.6,2.54-4.17
	c3.46-1.11,6.79-0.79,9.97,0.97c0.07,0.04,0.15,0.09,0.22,0.13C24.52,4.68,24.52,4.7,24.55,4.74z"/>
<path class="st1" d="M15.37,23.03c-0.07,1.14,0.03,2.22,0.2,3.33c-1.54-0.2-2.95-0.71-4.28-1.5c0.83-2.02,2.24-3.52,4.1-4.64
	c0.25,0.31,0.49,0.61,0.71,0.88c0.47-0.48,0.9-0.97,1.38-1.4c0.77-0.69,1.66-1.15,2.72-1.2c0.44-0.02,1.05,0.1,1.33,0.25
	c-0.39,0.02-0.84,0-1.27,0.08c-1.13,0.2-1.91,0.89-2.43,1.89c-0.52,0.99-0.7,2.07-0.79,3.17c-0.01,0.09-0.01,0.18-0.02,0.31
	C16.46,23.81,15.94,23.44,15.37,23.03z"/>
<path class="st1" d="M10.91,5.35c-0.9,3.32,0.49,5.55,3.38,7.12c-0.46,0.02-0.89,0.04-1.32,0.05c-1.32,0.02-2.65,0.03-3.94-0.33
	c-0.43-0.12-0.86-0.32-1.24-0.56c-0.49-0.3-0.69-0.8-0.6-1.36c0.06-0.39,0.17-0.79,0.36-1.13c0.8-1.45,1.89-2.67,3.2-3.68
	C10.81,5.42,10.86,5.38,10.91,5.35z"/>
<g>
	<path class="st1" d="M23.91,6.05c1.73,1.16,3.01,2.54,3.86,4.14h1.65c-0.76-1.71-1.91-3.2-3.42-4.46
		c-0.07-0.06-0.16-0.13-0.24-0.12c-0.65,0.09-1.3,0.2-1.95,0.31c0,0.02,0,0.04,0,0.07C23.84,6,23.88,6.03,23.91,6.05z"/>
	<path class="st1" d="M27.79,20.19c-0.44,0.83-1,1.61-1.67,2.34c-0.07,0.08-0.2,0.14-0.3,0.15c-2.15,0.23-4.13-0.24-5.93-1.44
		c-0.05-0.04-0.11-0.06-0.18-0.1c-0.27,0.69-0.4,1.39-0.37,2.11c0.07,1.42,0.7,2.6,1.61,3.65c0.15,0.17,0.28,0.21,0.5,0.15
		c2.05-0.58,3.86-1.59,5.35-3.1c1.15-1.17,2.03-2.42,2.64-3.76H27.79z"/>
</g>
<g>
	<path class="st1" d="M27.62,10.77h2.04l3.06,8.64h-1.96l-0.57-1.78h-3.18l-0.59,1.78h-1.89L27.62,10.77z M27.5,16.14h2.21
		l-1.09-3.4L27.5,16.14z"/>
	<path class="st1" d="M37.07,13.12c0.3,0.17,0.54,0.41,0.73,0.71v-3.05h1.69v8.62h-1.62v-0.88c-0.24,0.38-0.51,0.65-0.81,0.83
		s-0.68,0.26-1.14,0.26c-0.75,0-1.37-0.3-1.88-0.91s-0.76-1.38-0.76-2.32c0-1.09,0.25-1.95,0.75-2.57s1.17-0.94,2.01-0.94
		C36.42,12.86,36.77,12.95,37.07,13.12z M37.48,17.67c0.25-0.35,0.37-0.81,0.37-1.37c0-0.78-0.2-1.34-0.59-1.68
		c-0.24-0.2-0.52-0.3-0.84-0.3c-0.49,0-0.85,0.18-1.08,0.55s-0.34,0.83-0.34,1.37c0,0.59,0.12,1.06,0.35,1.42s0.58,0.53,1.06,0.53
		S37.23,18.02,37.48,17.67z"/>
	<path class="st1" d="M40.51,15.27h3.27v1.58h-3.27V15.27z"/>
	<path class="st1" d="M45.13,19.4v-8.64h1.79v3.29h3.36v-3.29h1.79v8.64h-1.79v-3.86h-3.36v3.86H45.13z"/>
	<path class="st1" d="M56.2,15.52c0.31-0.04,0.53-0.09,0.67-0.15c0.24-0.1,0.36-0.26,0.36-0.47c0-0.26-0.09-0.44-0.28-0.54
		c-0.18-0.1-0.45-0.15-0.81-0.15c-0.4,0-0.68,0.1-0.85,0.29c-0.12,0.14-0.2,0.34-0.24,0.59h-1.61c0.04-0.56,0.19-1.02,0.47-1.38
		c0.44-0.56,1.2-0.84,2.28-0.84c0.7,0,1.33,0.14,1.87,0.42c0.55,0.28,0.82,0.8,0.82,1.57v2.93c0,0.2,0,0.45,0.01,0.74
		c0.01,0.22,0.04,0.37,0.1,0.45s0.14,0.14,0.25,0.19v0.25h-1.82c-0.05-0.13-0.09-0.25-0.11-0.36s-0.04-0.24-0.05-0.39
		c-0.23,0.25-0.5,0.46-0.8,0.64c-0.36,0.21-0.77,0.31-1.23,0.31c-0.58,0-1.06-0.17-1.44-0.5c-0.38-0.33-0.57-0.8-0.57-1.4
		c0-0.79,0.3-1.35,0.92-1.71c0.33-0.19,0.83-0.33,1.48-0.41L56.2,15.52z M57.23,16.3c-0.11,0.07-0.21,0.12-0.32,0.16
		c-0.11,0.04-0.26,0.08-0.45,0.11l-0.38,0.07c-0.36,0.06-0.61,0.14-0.77,0.23c-0.26,0.15-0.39,0.39-0.39,0.71
		c0,0.29,0.08,0.49,0.24,0.62c0.16,0.13,0.36,0.19,0.59,0.19c0.37,0,0.7-0.11,1.01-0.32c0.31-0.21,0.47-0.6,0.48-1.15V16.3z"/>
	<path class="st1" d="M63.36,13.02h1.69l0.97,4.6l1-4.6h1.74l-1.85,6.39h-1.72l-1-4.65l-1.01,4.65h-1.73l-1.79-6.39h1.79l1,4.58
		L63.36,13.02z"/>
	<path class="st1" d="M69.66,10.8h1.64v4.66l2.11-2.41h2.08l-2.29,2.38l2.38,3.98h-2.03L72,16.68l-0.69,0.72v2.01h-1.64V10.8z"/>
</g>
<path class="st1" d="M6.39,12.31c0.75,1.01,1.86,1.31,3.01,1.49c1.5,0.23,3,0.17,4.5,0.07c1.12-0.07,2.25-0.18,3.37-0.22
	c0.92-0.03,1.84,0.06,2.73,0.33c0.44,0.13,0.85,0.32,1.17,0.65c0.28,0.29,0.41,0.64,0.35,1.04c-0.85-0.09-1.66-0.24-2.38-0.72
	c-0.24-0.16-0.54-0.26-0.82-0.35c-0.28-0.09-0.56-0.05-0.8,0.1c0.27,0.05,0.55,0.08,0.83,0.14c0.16,0.03,0.24,0.14,0.26,0.33
	c0.07,0.68,0.46,0.94,1.16,0.79c0.6-0.13,1.2-0.19,1.8-0.01c0.63,0.19,1.17,0.55,1.61,1.03c0.54,0.6,0.61,1.28,0.18,1.97
	c-0.2,0.31-0.46,0.57-0.7,0.86c-0.02-0.01-0.05-0.03-0.07-0.04c0-0.03-0.01-0.07-0.01-0.1c-0.01-0.61-0.31-1.03-0.86-1.28
	c-0.5-0.23-1.04-0.27-1.58-0.25c-1.68,0.08-3.23,0.62-4.74,1.3c-2.14,0.96-4.09,2.24-5.86,3.77c-0.06,0.05-0.12,0.1-0.19,0.16
	c-1.51-1.46-2.53-3.2-3.06-5.22C5.74,16.03,5.9,13.77,6.39,12.31z"/>
</svg>
