<svg id="Layer_1" data-name="Layer 1" xmlns="http://www.w3.org/2000/svg" viewBox="0 0 84 30"><defs><style>.cls-1{fill:#fff;}</style></defs><path class="cls-1" d="M25.8,4.74a13.58,13.58,0,0,0-3.69,1.1,8.83,8.83,0,0,0-4.72,4.92c-.06.16-.12.33-.17.5s-.09.35-.15.59c-.5-.21-1-.38-1.45-.62A4.63,4.63,0,0,1,13,7.74a3.76,3.76,0,0,1,2.54-4.17,12.14,12.14,0,0,1,10,1l.21.13S25.76,4.7,25.8,4.74Z"/><path class="cls-1" d="M16.61,23a15.41,15.41,0,0,0,.2,3.33,10.9,10.9,0,0,1-4.28-1.5,9.64,9.64,0,0,1,4.1-4.64l.71.88c.47-.48.9-1,1.38-1.4a4.32,4.32,0,0,1,2.73-1.19,3.08,3.08,0,0,1,1.32.25,9.41,9.41,0,0,0-1.27.08,3.33,3.33,0,0,0-2.43,1.89,7.88,7.88,0,0,0-.79,3.16c0,.09,0,.18,0,.32Z"/><path class="cls-1" d="M12.15,5.35c-.9,3.32.49,5.55,3.39,7.12l-1.32,0a13.4,13.4,0,0,1-3.94-.33A5.27,5.27,0,0,1,9,11.63a1.28,1.28,0,0,1-.6-1.36A3.4,3.4,0,0,1,8.8,9.14,11.77,11.77,0,0,1,12,5.46Z"/><path class="cls-1" d="M29,20.19a11.66,11.66,0,0,1-1.67,2.34.51.51,0,0,1-.3.15,8.71,8.71,0,0,1-5.93-1.44l-.17-.1a5,5,0,0,0-.37,2.11A6,6,0,0,0,22.2,26.9a.42.42,0,0,0,.5.15,11.87,11.87,0,0,0,5.35-3.11,13.09,13.09,0,0,0,2.64-3.75Z"/><path class="cls-1" d="M25.15,6.05A11.48,11.48,0,0,1,29,10.19h1.65a12.19,12.19,0,0,0-3.42-4.46c-.07-.06-.17-.13-.24-.12l-1.95.3V6Z"/><path class="cls-1" d="M28.86,11.35h2L34,20H32l-.57-1.78H28.25L27.67,20H25.78Zm-.12,5.37H31l-1.09-3.4Z"/><path class="cls-1" d="M38.31,13.7a2.07,2.07,0,0,1,.73.71V11.36h1.69V20H39.11V19.1a2.39,2.39,0,0,1-.81.83,2.34,2.34,0,0,1-1.14.26,2.38,2.38,0,0,1-1.88-.91A3.47,3.47,0,0,1,34.51,17a4,4,0,0,1,.76-2.58,2.45,2.45,0,0,1,2-.93A2.07,2.07,0,0,1,38.31,13.7Zm.41,4.55a2.3,2.3,0,0,0,.37-1.36,2.11,2.11,0,0,0-.59-1.68,1.32,1.32,0,0,0-.85-.3,1.16,1.16,0,0,0-1.07.55,2.56,2.56,0,0,0-.35,1.37,2.6,2.6,0,0,0,.35,1.42,1.2,1.2,0,0,0,1.06.53A1.25,1.25,0,0,0,38.72,18.25Z"/><path class="cls-1" d="M41.75,15.85H45v1.58H41.75Z"/><path class="cls-1" d="M46.37,20V11.35h1.79v3.29h3.36V11.35h1.79V20H51.52V16.13H48.16V20Z"/><path class="cls-1" d="M57.44,16.1a2.49,2.49,0,0,0,.67-.15.5.5,0,0,0,.36-.47.55.55,0,0,0-.28-.54,1.71,1.71,0,0,0-.81-.15,1.09,1.09,0,0,0-.85.29,1.33,1.33,0,0,0-.23.59H54.69a2.4,2.4,0,0,1,.47-1.38,2.74,2.74,0,0,1,2.28-.84,4.15,4.15,0,0,1,1.87.41,1.59,1.59,0,0,1,.82,1.57v2.93c0,.21,0,.45,0,.74a1,1,0,0,0,.1.45.72.72,0,0,0,.25.19V20H58.67a1.92,1.92,0,0,1-.11-.37c0-.11,0-.24,0-.38a3.28,3.28,0,0,1-.8.63,2.42,2.42,0,0,1-1.23.32,2.12,2.12,0,0,1-1.44-.5,1.76,1.76,0,0,1-.57-1.4,1.82,1.82,0,0,1,.92-1.71,4,4,0,0,1,1.47-.41Zm1,.78a1.66,1.66,0,0,1-.33.16,3.46,3.46,0,0,1-.45.12l-.38.07a2.41,2.41,0,0,0-.76.22.76.76,0,0,0-.4.71.74.74,0,0,0,.24.62A.91.91,0,0,0,57,19a1.77,1.77,0,0,0,1-.31,1.41,1.41,0,0,0,.48-1.16Z"/><path class="cls-1" d="M64.6,13.6h1.69l1,4.6,1-4.6H70L68.15,20H66.43l-1-4.66-1,4.66H62.68L60.89,13.6h1.79l1,4.58Z"/><path class="cls-1" d="M70.9,11.38h1.65V16l2.1-2.41h2.08L74.44,16l2.38,4h-2l-1.54-2.73-.69.72v2H70.9Z"/><path class="cls-1" d="M7.63,12.31a4.22,4.22,0,0,0,3,1.49,20.52,20.52,0,0,0,4.5.07c1.13-.07,2.25-.18,3.38-.22a8.16,8.16,0,0,1,2.73.34,2.62,2.62,0,0,1,1.17.65,1.22,1.22,0,0,1,.35,1A5.06,5.06,0,0,1,20.39,15a3.52,3.52,0,0,0-.82-.36,1,1,0,0,0-.8.1c.27.05.55.08.83.14a.33.33,0,0,1,.26.33c.07.68.46.94,1.16.79a3.25,3.25,0,0,1,3.4,1,1.49,1.49,0,0,1,.18,2,7.11,7.11,0,0,1-.7.86l-.07,0s0-.07,0-.1A1.34,1.34,0,0,0,23,18.38a3.37,3.37,0,0,0-1.57-.24,13.14,13.14,0,0,0-4.75,1.3,24.13,24.13,0,0,0-5.86,3.77l-.19.16a11.14,11.14,0,0,1-3-5.22A10.86,10.86,0,0,1,7.63,12.31Z"/></svg>